#!OML:ASF F:\twosubjects\two\Thursday\Session 1\justin.ASF
:FULLY-SPECIFIED
:DEGREES
356
root 24.4055 15.7015 -4.4188 12.147 -45.7451 -3.75589
lowerback 28.3485 2.41607 -5.25235
upperback 7.46414 1.28388 -0.0411678
thorax -7.37743 0.518894 2.56499
lowerneck -10.0752 -12.4455 -16.8031
upperneck -18.9152 -13.9082 23.3784
head -0.763768 -7.07914 9.47229
rclavicle 1.39149e-014 -9.14409e-015
rhumerus -23.5377 -15.1212 -80.0241
rradius 43.0526
rwrist -7.39507
rhand -18.0702 13.7116
rfingers 7.12502
rthumb 8.2026 -16.1092
lclavicle 1.39149e-014 -9.14409e-015
lhumerus -32.1203 -16.2124 87.3062
lradius 69.4724
lwrist -12.2666
lhand -12.8066 27.2075
lfingers 7.12502
lthumb 13.2796 56.7645
rfemur -33.8726 -12.2966 4.79871
rtibia 68.9373
rfoot -28.029 -0.66134
rtoes -40.4876
lfemur -39.787 10.7004 1.32007
ltibia 61.1757
lfoot -28.543 -1.30178
ltoes -31.5622
357
root 24.3861 15.6506 -4.48301 12.7802 -45.481 -4.78031
lowerback 28.344 2.26068 -4.66709
upperback 7.38773 1.26015 0.0418799
thorax -7.45352 0.506923 2.32832
lowerneck -10.6647 -12.5862 -16.89
upperneck -18.0756 -14.0894 23.3901
head -0.389246 -7.10871 9.38373
rclavicle -3.37934e-014 -1.51076e-014
rhumerus -23.79 -15.1981 -80.4618
rradius 42.564
rwrist -6.87039
rhand -17.9227 14.0161
rfingers 7.12502
rthumb 8.34491 -15.7991
lclavicle -3.37934e-014 -1.51076e-014
lhumerus -32.2935 -15.6424 86.8856
lradius 69.935
lwrist -11.9722
lhand -12.373 26.6992
lfingers 7.12502
lthumb 13.6975 56.2284
rfemur -33.0398 -12.1358 5.98853
rtibia 67.8307
rfoot -30.1437 -2.202
rtoes -40.6713
lfemur -40.1248 10.9787 2.44285
ltibia 61.5917
lfoot -28.72 -1.64177
ltoes -32.0074
358
root 24.3719 15.6107 -4.54297 12.8871 -45.5381 -5.28086
lowerback 28.8136 2.28037 -4.6836
upperback 7.12974 1.26302 0.135771
thorax -7.97514 0.525139 2.43515
lowerneck -11.2404 -12.6287 -16.8806
upperneck -17.1074 -14.1752 23.0164
head -0.0529257 -7.07805 9.16935
rclavicle -3.97569e-015 -1.90833e-014
rhumerus -24.5824 -14.4277 -80.494
rradius 42.3543
rwrist -6.67156
rhand -18.1106 13.5222
rfingers 7.12502
rthumb 8.16355 -16.3001
lclavicle -3.97569e-015 -1.90833e-014
lhumerus -32.908 -14.7049 86.8496
lradius 70.3248
lwrist -11.7488
lhand -12.2748 26.4059
lfingers 7.12502
lthumb 13.7922 55.9287
rfemur -32.4876 -12.2109 6.80873
rtibia 67.2127
rfoot -31.6962 -3.61442
rtoes -40.0877
lfemur -40.1147 11.224 3.11742
ltibia 61.965
lfoot -28.8216 -2.05586
ltoes -31.7304
359
root 24.3821 15.5716 -4.5823 12.5156 -45.8064 -5.20461
lowerback 28.9191 2.30438 -4.64885
upperback 7.2516 1.2743 -0.026257
thorax -7.88532 0.521806 2.22987
lowerneck -11.589 -12.5427 -16.7776
upperneck -16.8686 -14.0527 22.7649
head 0.00783034 -6.98985 9.06064
rclavicle -9.14409e-015 1.66979e-014
rhumerus -24.6691 -14.1785 -80.7025
rradius 41.8208
rwrist -6.25268
rhand -19.028 13.0205
rfingers 7.12502
rthumb 7.27816 -16.8343
lclavicle -9.14409e-015 1.66979e-014
lhumerus -32.7791 -13.7367 86.6957
lradius 70.4533
lwrist -11.7014
lhand -11.9892 26.1148
lfingers 7.12502
lthumb 14.0674 55.6187
rfemur -32.199 -12.779 7.09086
rtibia 66.993
rfoot -32.8579 -4.28505
rtoes -38.1766
lfemur -39.9762 11.4084 3.21169
ltibia 62.3343
lfoot -28.8134 -2.25577
ltoes -31.4613
360
root 24.3851 15.5338 -4.625 12.3994 -46.1664 -4.88251
lowerback 28.8521 2.45385 -5.07483
upperback 7.10653 1.33487 -0.150312
thorax -8.02507 0.562877 2.31428
lowerneck -11.7561 -12.4412 -16.7155
upperneck -16.7496 -13.9144 22.5779
head 0.0152619 -6.90531 8.99682
rclavicle 2.38542e-014 -1.19271e-014
rhumerus -24.754 -14.3009 -80.7664
rradius 40.8793
rwrist -5.0549
rhand -18.5254 14.3629
rfingers 7.12502
rthumb 7.76328 -15.4746
lclavicle 2.38542e-014 -1.19271e-014
lhumerus -32.9839 -12.7456 86.6353
lradius 70.8092
lwrist -11.8861
lhand -11.7225 25.9028
lfingers 7.12502
lthumb 14.3244 55.3886
rfemur -32.6858 -13.3325 7.34144
rtibia 67.0991
rfoot -33.527 -5.49876
rtoes -37.454
lfemur -40.2513 11.756 3.02829
ltibia 62.6246
lfoot -28.7943 -2.1797
ltoes -31.7049
361
root 24.3953 15.514 -4.67076 12.4654 -46.3518 -4.79172
lowerback 28.8007 2.50001 -5.04191
upperback 7.07696 1.38448 -0.351512
thorax -8.03215 0.585934 2.05282
lowerneck -12.0569 -12.5122 -16.3436
upperneck -16.8189 -14.0154 22.3768
head 0.00695884 -6.95971 8.84821
rclavicle -4.01545e-014 6.75868e-014
rhumerus -24.5041 -15.4194 -80.6875
rradius 39.3515
rwrist -2.2344
rhand -16.048 17.6903
rfingers 7.12502
rthumb 10.1538 -12.0447
lclavicle -4.01545e-014 6.75868e-014
lhumerus -32.9654 -12.2927 86.4002
lradius 71.2846
lwrist -11.7955
lhand -11.7742 26.0355
lfingers 7.12502
lthumb 14.2745 55.5249
rfemur -33.251 -13.8905 7.76272
rtibia 67.3232
rfoot -34.0827 -6.14496
rtoes -36.6712
lfemur -40.5878 11.8205 3.03604
ltibia 62.7827
lfoot -28.6523 -2.28751
ltoes -31.3071
362
root 24.406 15.5117 -4.71732 12.4155 -46.3861 -4.90333
lowerback 29.1459 2.37634 -4.79546
upperback 7.03741 1.25265 -0.542489
thorax -8.22745 0.522598 1.7383
lowerneck -12.037 -12.3827 -16.1188
upperneck -17.1326 -13.8434 22.3005
head -0.142505 -6.89574 8.82922
rclavicle 7.55382e-014 -7.07673e-014
rhumerus -24.3562 -13.9264 -81.7575
rradius 39.5031
rwrist -4.95682
rhand -17.599 14.5148
rfingers 7.12502
rthumb 8.65729 -15.2876
lclavicle 7.55382e-014 -7.07673e-014
lhumerus -33.0197 -11.5978 86.1084
lradius 71.4533
lwrist -11.7303
lhand -11.9638 26.0445
lfingers 7.12502
lthumb 14.0919 55.5467
rfemur -33.4674 -14.3321 8.20126
rtibia 67.5357
rfoot -34.4967 -6.09162
rtoes -34.605
lfemur -40.5857 11.5516 3.26818
ltibia 62.8098
lfoot -28.2576 -2.50172
ltoes -30.1895
363
root 24.4032 15.5104 -4.76593 12.5932 -46.5794 -5.37009
lowerback 29.0426 2.27251 -4.55373
upperback 7.28598 1.17862 -0.65986
thorax -7.88545 0.46898 1.49867
lowerneck -11.9396 -12.1907 -16.2618
upperneck -17.7446 -13.5094 22.7346
head -0.332289 -6.76079 9.07065
rclavicle -5.08889e-014 -1.98785e-014
rhumerus -23.7978 -13.3592 -82.4152
rradius 38.9742
rwrist -4.72944
rhand -17.6753 14.1689
rfingers 7.12502
rthumb 8.58373 -15.6367
lclavicle -5.08889e-014 -1.98785e-014
lhumerus -32.7353 -10.5458 85.7764
lradius 71.4675
lwrist -11.8981
lhand -12.1227 25.5629
lfingers 7.12502
lthumb 13.9388 55.0756
rfemur -33.6885 -14.2811 8.85365
rtibia 67.7243
rfoot -34.4941 -6.67696
rtoes -33.794
lfemur -40.3239 11.5494 3.77435
ltibia 62.7467
lfoot -27.7474 -2.67594
ltoes -29.0685
364
root 24.4344 15.5036 -4.79377 13.1951 -46.8616 -6.47393
lowerback 29.2515 2.15038 -3.79486
upperback 7.40659 1.22934 -0.586109
thorax -7.8431 0.476799 1.12569
lowerneck -12.3888 -12.1759 -16.3908
upperneck -17.6494 -13.4241 22.8648
head -0.229142 -6.69214 9.11669
rclavicle -1.27222e-014 7.55382e-014
rhumerus -23.3958 -13.8357 -82.1858
rradius 37.6702
rwrist -1.7022
rhand -15.3902 16.8395
rfingers 7.12502
rthumb 10.7884 -12.8634
lclavicle -1.27222e-014 7.55382e-014
lhumerus -32.7078 -9.58047 85.8653
lradius 71.5849
lwrist -11.7544
lhand -12.3705 25.0521
lfingers 7.12502
lthumb 13.6999 54.5811
rfemur -33.8225 -13.9163 9.72417
rtibia 67.8523
rfoot -34.3976 -6.92464
rtoes -34.025
lfemur -40.04 11.6207 4.68993
ltibia 62.7245
lfoot -27.3954 -2.60369
ltoes -28.5551
365
root 24.4506 15.5027 -4.8248 13.4067 -47.205 -6.72564
lowerback 29.1484 2.27767 -3.83748
upperback 7.49444 1.38193 -0.559468
thorax -7.70264 0.543739 1.12949
lowerneck -13.1412 -12.2037 -15.8956
upperneck -17.3146 -13.4874 22.1545
head -0.129265 -6.687 8.75053
rclavicle -7.63333e-014 3.18055e-015
rhumerus -23.0595 -12.4103 -82.7144
rradius 37.7852
rwrist -4.06466
rhand -16.4577 13.864
rfingers 7.12502
rthumb 9.75857 -15.8899
lclavicle -7.63333e-014 3.18055e-015
lhumerus -32.6066 -9.02736 86.1045
lradius 71.6482
lwrist -11.3205
lhand -12.9086 25.0039
lfingers 7.12502
lthumb 13.1813 54.5672
rfemur -34.1192 -13.5848 9.84709
rtibia 67.9731
rfoot -34.2658 -6.44039
rtoes -33.8976
lfemur -39.9507 11.5507 4.88303
ltibia 62.6166
lfoot -27.2653 -1.32478
ltoes -30.8632
366
root 24.4615 15.5011 -4.85375 12.792 -47.6277 -6.10095
lowerback 29.0964 2.4709 -4.4369
upperback 7.68602 1.44003 -0.667724
thorax -7.47206 0.565925 1.33675
lowerneck -13.5106 -12.1487 -15.7323
upperneck -17.4056 -13.3991 21.7646
head -0.175596 -6.62917 8.60137
rclavicle 7.15625e-015 4.53229e-014
rhumerus -22.583 -12.022 -82.7393
rradius 37.2908
rwrist -3.9334
rhand -15.9008 13.9994
rfingers 7.12502
rthumb 10.2958 -15.7286
lclavicle 7.15625e-015 4.53229e-014
lhumerus -32.4286 -8.37434 86.3537
lradius 71.6906
lwrist -11.0751
lhand -13.4042 25.3575
lfingers 7.12502
lthumb 12.7036 54.9511
rfemur -34.1849 -13.3704 9.2155
rtibia 68.0472
rfoot -33.984 -6.05395
rtoes -34.1885
lfemur -39.6147 11.3966 4.39142
ltibia 62.4435
lfoot -27.1029 0.457563
ltoes -34.2598
367
root 24.4773 15.5038 -4.88375 12.2712 -47.7971 -5.71874
lowerback 29.2255 2.44291 -4.69843
upperback 7.87133 1.3051 -0.769626
thorax -7.31862 0.493777 1.42076
lowerneck -13.6378 -12.0307 -16.1657
upperneck -17.5843 -13.1404 22.1031
head -0.185811 -6.48429 8.81559
rclavicle -3.49861e-014 8.50798e-014
rhumerus -22.0799 -12.2554 -82.6112
rradius 36.4
rwrist -2.14802
rhand -13.8441 16.2587
rfingers 7.12502
rthumb 12.2795 -13.3608
lclavicle -3.49861e-014 8.50798e-014
lhumerus -32.2869 -7.67211 86.5954
lradius 71.691
lwrist -10.8053
lhand -14.2237 25.8028
lfingers 7.12502
lthumb 11.9134 55.4438
rfemur -34.1054 -13.098 8.76196
rtibia 68.072
rfoot -33.6484 -5.76351
rtoes -35.2814
lfemur -39.3123 11.0592 4.18591
ltibia 62.2659
lfoot -26.8497 1.0017
ltoes -35.07
368
root 24.4917 15.5185 -4.91706 12.1796 -47.7576 -5.67112
lowerback 29.3343 2.33115 -4.674
upperback 7.9298 1.15903 -0.798374
thorax -7.29517 0.421582 1.42458
lowerneck -13.7381 -11.9265 -16.262
upperneck -17.7096 -12.9646 22.1128
head -0.231653 -6.39106 8.86007
rclavicle -4.77083e-015 2.94201e-014
rhumerus -21.8464 -12.4538 -82.5359
rradius 35.8357
rwrist -0.947505
rhand -13.0052 15.864
rfingers 7.12502
rthumb 13.0882 -13.7053
lclavicle -4.77083e-015 2.94201e-014
lhumerus -32.2998 -6.94493 86.9336
lradius 71.5386
lwrist -10.6328
lhand -15.5777 26.0476
lfingers 7.12502
lthumb 10.6075 55.7599
rfemur -34.1499 -12.829 8.61095
rtibia 68.0376
rfoot -33.3509 -5.36537
rtoes -36.8102
lfemur -39.3388 10.5955 4.27907
ltibia 62.1523
lfoot -26.6041 0.173541
ltoes -32.5595
369
root 24.4977 15.5383 -4.93417 11.6981 -47.994 -5.16846
lowerback 29.4013 2.52975 -5.26901
upperback 7.93137 1.24645 -0.666631
thorax -7.34078 0.46646 1.88241
lowerneck -13.8101 -11.9382 -16.3405
upperneck -17.7426 -12.9811 21.6816
head -0.275209 -6.38038 8.73322
rclavicle 1.03368e-014 -7.95139e-015
rhumerus -21.9209 -12.4749 -82.029
rradius 35.551
rwrist -0.341142
rhand -14.1264 14.461
rfingers 7.12502
rthumb 12.0072 -15.1746
lclavicle 1.03368e-014 -7.95139e-015
lhumerus -32.4912 -6.08847 87.6992
lradius 71.3012
lwrist -10.7363
lhand -16.9345 26.3632
lfingers 7.12502
lthumb 9.29859 56.1382
rfemur -34.0268 -12.3457 8.00972
rtibia 67.9797
rfoot -33.328 -4.88512
rtoes -37.3208
lfemur -39.1797 10.2247 3.9335
ltibia 62.1447
lfoot -26.4666 -0.622541
ltoes -29.0579
370
root 24.5066 15.5511 -4.94965 11.1262 -48.3688 -4.43848
lowerback 29.3575 2.81939 -6.03565
upperback 7.87948 1.40081 -0.607516
thorax -7.40138 0.547268 2.3348
lowerneck -13.623 -11.9382 -16.5362
upperneck -17.8638 -12.9832 21.4526
head -0.352873 -6.37414 8.70765
rclavicle 4.05521e-014 -3.49861e-014
rhumerus -21.9291 -13.067 -81.4615
rradius 35.0299
rwrist 0.634924
rhand -5.75367 21.495
rfingers 7.12502
rthumb 20.0691 -7.48849
lclavicle 4.05521e-014 -3.49861e-014
lhumerus -32.6844 -5.82808 88.3791
lradius 71.1748
lwrist -10.717
lhand -18.1203 27.0325
lfingers 7.12502
lthumb 8.15424 56.8552
rfemur -34.0912 -11.8423 7.3013
rtibia 68.0224
rfoot -33.3627 -4.43543
rtoes -36.4131
lfemur -39.0031 10.06 3.32875
ltibia 62.1379
lfoot -26.3958 -0.197304
ltoes -28.5551
